<?xml version="1.0" encoding="UTF-8"?>
<!DOCTYPE svg PUBLIC "-//W3C//DTD SVG 1.1//EN" "http://www.w3.org/Graphics/SVG/1.1/DTD/svg11.dtd">
<svg xmlns="http://www.w3.org/2000/svg" version="1.1" width="785px" height="775px" style="shape-rendering:geometricPrecision; text-rendering:geometricPrecision; image-rendering:optimizeQuality; fill-rule:evenodd; clip-rule:evenodd" xmlns:xlink="http://www.w3.org/1999/xlink">
<g><path style="opacity:1" fill="#14432d" d="M -0.5,-0.5 C 261.167,-0.5 522.833,-0.5 784.5,-0.5C 784.5,257.833 784.5,516.167 784.5,774.5C 522.833,774.5 261.167,774.5 -0.5,774.5C -0.5,516.167 -0.5,257.833 -0.5,-0.5 Z"/></g>
<g><path style="opacity:1" fill="#c4d1ba" d="M 257.5,316.5 C 243.743,312.676 229.743,311.676 215.5,313.5C 216.902,314.842 216.569,315.676 214.5,316C 217.298,317.598 220.298,318.765 223.5,319.5C 223.863,320.183 224.196,320.85 224.5,321.5C 208.131,314.972 191.465,313.972 174.5,318.5C 175.398,316.373 177.064,315.206 179.5,315C 188.662,314.972 197.662,314.306 206.5,313C 183.809,312.209 161.143,312.376 138.5,313.5C 139.263,312.732 140.263,312.232 141.5,312C 176.833,311.333 212.167,311.333 247.5,312C 251.229,312.844 254.563,314.344 257.5,316.5 Z"/></g>
<g><path style="opacity:1" fill="#f0f5ee" d="M 650.5,326.5 C 657.745,326.555 659.745,329.722 656.5,336C 651.643,337.753 648.643,336.253 647.5,331.5C 648.092,329.577 649.092,327.911 650.5,326.5 Z"/></g>
<g><path style="opacity:1" fill="#f4f8f1" d="M 342.5,331.5 C 352.624,330.122 361.957,332.122 370.5,337.5C 369.752,339.332 368.752,340.999 367.5,342.5C 357.077,336.483 346.411,335.983 335.5,341C 321.203,354.673 320.869,368.673 334.5,383C 345.874,389.012 357.208,388.846 368.5,382.5C 370.256,384.554 370.59,386.721 369.5,389C 355.354,395.622 341.688,394.956 328.5,387C 318.616,376.579 315.782,364.412 320,350.5C 324.657,340.667 332.157,334.333 342.5,331.5 Z"/></g>
<g><path style="opacity:1" fill="#f1f5ef" d="M 436.5,392.5 C 436.333,377.83 436.5,363.163 437,348.5C 437.718,347.549 438.551,347.383 439.5,348C 440.085,349.302 440.751,350.469 441.5,351.5C 441.56,352.043 441.893,352.376 442.5,352.5C 451.182,345.116 460.849,343.616 471.5,348C 475.194,350.687 477.694,354.187 479,358.5C 479.5,369.828 479.667,381.162 479.5,392.5C 477.5,392.5 475.5,392.5 473.5,392.5C 473.936,380.757 473.436,369.09 472,357.5C 469.122,352.978 464.955,350.978 459.5,351.5C 452.504,351.081 447.004,353.748 443,359.5C 442.5,370.495 442.333,381.495 442.5,392.5C 440.5,392.5 438.5,392.5 436.5,392.5 Z"/></g>
<g><path style="opacity:1" fill="#f1f6ee" d="M 587.5,345.5 C 613.453,344.601 623.286,356.601 617,381.5C 606.3,394.46 593.467,396.96 578.5,389C 568.381,379.74 566.215,368.906 572,356.5C 576.162,351.19 581.329,347.524 587.5,345.5 Z"/></g>
<g><path style="opacity:1" fill="#eaf0e7" d="M 649.5,346.5 C 651.833,346.5 654.167,346.5 656.5,346.5C 656.5,361.833 656.5,377.167 656.5,392.5C 654.167,392.5 651.833,392.5 649.5,392.5C 649.5,377.167 649.5,361.833 649.5,346.5 Z"/></g>
<g><path style="opacity:1" fill="#f9fbf7" d="M 530.5,392.5 C 530.5,377.833 530.5,363.167 530.5,348.5C 531.833,348.5 533.167,348.5 534.5,348.5C 534.216,350.415 534.549,352.081 535.5,353.5C 542.425,346.043 550.759,343.877 560.5,347C 567.526,349.133 568.026,351.966 562,355.5C 551.889,348.985 543.223,350.652 536,360.5C 535.5,371.161 535.333,381.828 535.5,392.5C 533.833,392.5 532.167,392.5 530.5,392.5 Z"/></g>
<g><path style="opacity:1" fill="#18452f" d="M 589.5,350.5 C 603.484,349.5 611.484,355.833 613.5,369.5C 611.154,384.517 602.487,390.35 587.5,387C 577.784,382.245 573.951,374.412 576,363.5C 578.442,356.888 582.942,352.555 589.5,350.5 Z"/></g>
<g><path style="opacity:1" fill="#f6f9f4" d="M 629.5,325.5 C 631.5,325.5 633.5,325.5 635.5,325.5C 635.333,344.836 635.5,364.17 636,383.5C 637.509,385.919 639.675,386.919 642.5,386.5C 642.5,388.5 642.5,390.5 642.5,392.5C 636.305,393.655 632.139,391.322 630,385.5C 629.5,365.503 629.333,345.503 629.5,325.5 Z"/></g>
<g><path style="opacity:1" fill="#f1f6ee" d="M 394.5,345.5 C 405.094,344.421 414.261,347.421 422,354.5C 429.437,367.533 427.603,379.033 416.5,389C 402.208,396.701 389.708,394.535 379,382.5C 371.065,364.435 376.232,352.102 394.5,345.5 Z"/></g>
<g><path style="opacity:1" fill="#17452e" d="M 396.5,350.5 C 417.709,351.585 424.209,361.918 416,381.5C 408.761,387.631 400.594,389.131 391.5,386C 383.549,380.157 380.716,372.323 383,362.5C 385.833,356.493 390.333,352.493 396.5,350.5 Z"/></g>
<g><path style="opacity:1" fill="#3d6145" d="M 518.5,351.5 C 512.69,352.49 506.69,352.823 500.5,352.5C 500.5,361.833 500.5,371.167 500.5,380.5C 499.506,371.014 499.173,361.348 499.5,351.5C 505.833,351.5 512.167,351.5 518.5,351.5 Z"/></g>
<g><path style="opacity:1" fill="#d5e0cf" d="M 441.5,351.5 C 440.751,350.469 440.085,349.302 439.5,348C 438.551,347.383 437.718,347.549 437,348.5C 436.5,363.163 436.333,377.83 436.5,392.5C 435.504,377.342 435.17,362.009 435.5,346.5C 437.5,346.5 439.5,346.5 441.5,346.5C 441.5,348.167 441.5,349.833 441.5,351.5 Z"/></g>
<g><path style="opacity:1" fill="#e4efde" d="M 535.5,353.5 C 534.549,352.081 534.216,350.415 534.5,348.5C 533.167,348.5 531.833,348.5 530.5,348.5C 530.5,363.167 530.5,377.833 530.5,392.5C 529.504,377.342 529.17,362.009 529.5,346.5C 531.5,346.5 533.5,346.5 535.5,346.5C 535.5,348.833 535.5,351.167 535.5,353.5 Z"/></g>
<g><path style="opacity:1" fill="#f5f9f2" d="M 518.5,351.5 C 512.167,351.5 505.833,351.5 499.5,351.5C 499.173,361.348 499.506,371.014 500.5,380.5C 500.84,383.675 502.507,385.841 505.5,387C 509.965,387.734 514.299,387.234 518.5,385.5C 521.154,386.469 521.82,388.136 520.5,390.5C 512.721,394.655 505.055,394.489 497.5,390C 495.932,387.696 494.765,385.196 494,382.5C 493.667,372.5 493.333,362.5 493,352.5C 490.619,351.565 488.119,351.232 485.5,351.5C 485.351,350.448 485.517,349.448 486,348.5C 491.109,345.975 494.609,341.975 496.5,336.5C 497.325,335.614 498.325,335.281 499.5,335.5C 499.5,339.167 499.5,342.833 499.5,346.5C 505.833,346.5 512.167,346.5 518.5,346.5C 518.5,348.167 518.5,349.833 518.5,351.5 Z"/></g>
<g><path style="opacity:1" fill="#f0f4ec" d="M 681.5,345.5 C 689.515,344.708 697.181,345.875 704.5,349C 706.617,350.731 708.117,352.898 709,355.5C 709.333,365.5 709.667,375.5 710,385.5C 711.444,387.155 713.278,387.822 715.5,387.5C 715.562,392.984 712.895,394.817 707.5,393C 705.787,391.075 704.453,388.908 703.5,386.5C 695.874,392.65 687.207,394.817 677.5,393C 666.883,387.149 664.883,379.149 671.5,369C 681.66,366.408 691.993,365.241 702.5,365.5C 702.665,362.15 702.498,358.817 702,355.5C 700.421,353.959 698.587,352.792 696.5,352C 688.58,350.806 680.913,351.639 673.5,354.5C 671.849,352.598 671.516,350.598 672.5,348.5C 675.662,347.635 678.662,346.635 681.5,345.5 Z"/></g>
<g><path style="opacity:1" fill="#1a4730" d="M 692.5,369.5 C 695.833,369.5 699.167,369.5 702.5,369.5C 702.666,373.514 702.499,377.514 702,381.5C 693.81,387.969 685.144,388.969 676,384.5C 674.543,381.634 674.21,378.634 675,375.5C 675.5,373.667 676.667,372.5 678.5,372C 683.336,371.32 688.003,370.486 692.5,369.5 Z"/></g>
<g><path style="opacity:1" fill="#c7d7bc" d="M 125.5,322.5 C 124.034,325.247 123.201,328.247 123,331.5C 122,332.167 121,332.833 120,333.5C 118.919,335.622 118.252,337.622 118,339.5C 117.5,374.165 117.333,408.832 117.5,443.5C 116.336,408.002 116.169,372.336 117,336.5C 118.591,330.969 121.424,326.302 125.5,322.5 Z"/></g>
<g><path style="opacity:1" fill="#d2d9ca" d="M 174.5,318.5 C 139.775,331.243 122.942,356.243 124,393.5C 129.897,427.837 149.731,449.004 183.5,457C 222.359,460.109 248.859,443.609 263,407.5C 271.627,369.095 258.793,340.429 224.5,321.5C 224.196,320.85 223.863,320.183 223.5,319.5C 220.298,318.765 217.298,317.598 214.5,316C 216.569,315.676 216.902,314.842 215.5,313.5C 229.743,311.676 243.743,312.676 257.5,316.5C 265.857,321.04 271.024,328.04 273,337.5C 273.667,372.5 273.667,407.5 273,442.5C 269.167,455.667 260.667,464.167 247.5,468C 212.167,468.667 176.833,468.667 141.5,468C 129.254,463.921 121.254,455.755 117.5,443.5C 117.333,408.832 117.5,374.165 118,339.5C 118.252,337.622 118.919,335.622 120,333.5C 121,332.833 122,332.167 123,331.5C 123.201,328.247 124.034,325.247 125.5,322.5C 128.604,317.777 132.938,314.777 138.5,313.5C 161.143,312.376 183.809,312.209 206.5,313C 197.662,314.306 188.662,314.972 179.5,315C 177.064,315.206 175.398,316.373 174.5,318.5 Z"/></g>
<g><path style="opacity:1" fill="#16442e" d="M 224.5,321.5 C 258.793,340.429 271.627,369.095 263,407.5C 248.859,443.609 222.359,460.109 183.5,457C 149.731,449.004 129.897,427.837 124,393.5C 122.942,356.243 139.775,331.243 174.5,318.5C 191.465,313.972 208.131,314.972 224.5,321.5 Z"/></g>
<g><path style="opacity:1" fill="#eaf3e4" d="M 231.5,376.5 C 235.452,377.196 239.452,377.696 243.5,378C 244,378.5 244.5,379 245,379.5C 245.667,384.167 245.667,388.833 245,393.5C 244.5,394 244,394.5 243.5,395C 240.167,395.333 236.833,395.667 233.5,396C 228.931,398.541 227.431,402.375 229,407.5C 230.376,408.705 231.542,410.038 232.5,411.5C 230.549,411.773 229.049,411.107 228,409.5C 227.667,409.833 227.333,410.167 227,410.5C 226.23,406.159 226.73,401.992 228.5,398C 228.167,397.667 227.833,397.333 227.5,397C 232.427,395.259 237.427,393.759 242.5,392.5C 243.77,388.484 243.77,384.484 242.5,380.5C 238.796,379.767 235.129,379.1 231.5,378.5C 231.5,377.833 231.5,377.167 231.5,376.5 Z"/></g>
<g><path style="opacity:1" fill="#17452e" d="M 181.5,388.5 C 185.403,399.783 192.736,402.783 203.5,397.5C 206.853,400.522 210.187,403.522 213.5,406.5C 210.972,409.782 207.639,412.116 203.5,413.5C 189.983,416.654 179.149,412.654 171,401.5C 169.241,397.991 168.074,394.325 167.5,390.5C 171.715,388.564 176.381,387.897 181.5,388.5 Z"/></g>
<g><path style="opacity:1" fill="#fcfcfb" d="M 231.5,378.5 C 235.129,379.1 238.796,379.767 242.5,380.5C 243.77,384.484 243.77,388.484 242.5,392.5C 237.427,393.759 232.427,395.259 227.5,397C 227.833,397.333 228.167,397.667 228.5,398C 226.73,401.992 226.23,406.159 227,410.5C 227.333,410.167 227.667,409.833 228,409.5C 229.049,411.107 230.549,411.773 232.5,411.5C 234.708,412.918 235.542,414.918 235,417.5C 232.167,420.333 229.333,423.167 226.5,426C 221.93,426.629 218.596,424.796 216.5,420.5C 215.306,419.223 213.64,418.556 211.5,418.5C 207.675,417.83 204.842,419.163 203,422.5C 202.797,426.421 202.297,430.255 201.5,434C 197.3,435.367 192.967,435.867 188.5,435.5C 187.864,432.894 187.864,430.394 188.5,428C 187.793,425.48 186.96,422.98 186,420.5C 183.327,419.666 180.993,418.333 179,416.5C 171.803,418.695 170.303,417.028 174.5,411.5C 175.365,410.417 176.365,410.251 177.5,411C 175.963,412.11 175.297,413.61 175.5,415.5C 177.903,415.607 179.736,414.607 181,412.5C 183.698,413.28 186.031,414.613 188,416.5C 192.749,415.695 197.582,415.195 202.5,415C 203.056,414.617 203.389,414.117 203.5,413.5C 207.639,412.116 210.972,409.782 213.5,406.5C 213.842,405.662 214.508,405.328 215.5,405.5C 215.833,405.5 216.167,405.5 216.5,405.5C 218.024,404.826 219.358,403.826 220.5,402.5C 221.666,398.834 222.833,395.167 224,391.5C 225.242,389.459 227.075,388.293 229.5,388C 224.882,387.265 223.549,384.765 225.5,380.5C 226.167,381.5 226.833,382.5 227.5,383.5C 227.833,381.5 228.167,379.5 228.5,377.5C 229.417,378.127 230.417,378.461 231.5,378.5 Z"/></g>
<g><path style="opacity:1" fill="#f7faf5" d="M 231.5,376.5 C 231.5,377.167 231.5,377.833 231.5,378.5C 230.417,378.461 229.417,378.127 228.5,377.5C 228.167,379.5 227.833,381.5 227.5,383.5C 226.833,382.5 226.167,381.5 225.5,380.5C 223.549,384.765 224.882,387.265 229.5,388C 227.075,388.293 225.242,389.459 224,391.5C 222.833,395.167 221.666,398.834 220.5,402.5C 219.358,403.826 218.024,404.826 216.5,405.5C 219.667,401.005 221.667,396.005 222.5,390.5C 223.404,389.791 223.737,388.791 223.5,387.5C 218.305,387.179 213.305,387.513 208.5,388.5C 207.793,390.781 206.793,392.948 205.5,395C 209.037,398.369 212.371,401.869 215.5,405.5C 214.508,405.328 213.842,405.662 213.5,406.5C 210.187,403.522 206.853,400.522 203.5,397.5C 192.736,402.783 185.403,399.783 181.5,388.5C 176.695,387.513 171.695,387.179 166.5,387.5C 166.263,388.791 166.596,389.791 167.5,390.5C 168.074,394.325 169.241,397.991 171,401.5C 179.149,412.654 189.983,416.654 203.5,413.5C 203.389,414.117 203.056,414.617 202.5,415C 197.582,415.195 192.749,415.695 188,416.5C 186.031,414.613 183.698,413.28 181,412.5C 179.736,414.607 177.903,415.607 175.5,415.5C 175.297,413.61 175.963,412.11 177.5,411C 176.365,410.251 175.365,410.417 174.5,411.5C 170.303,417.028 171.803,418.695 179,416.5C 180.993,418.333 183.327,419.666 186,420.5C 186.96,422.98 187.793,425.48 188.5,428C 187.864,430.394 187.864,432.894 188.5,435.5C 192.967,435.867 197.3,435.367 201.5,434C 202.297,430.255 202.797,426.421 203,422.5C 204.842,419.163 207.675,417.83 211.5,418.5C 213.64,418.556 215.306,419.223 216.5,420.5C 212.071,418.952 208.237,419.952 205,423.5C 204.021,427.673 203.188,431.839 202.5,436C 197.5,436.667 192.5,436.667 187.5,436C 186.812,431.839 185.979,427.673 185,423.5C 178.658,417.785 173.158,418.618 168.5,426C 167.241,426.982 165.908,427.315 164.5,427C 160.784,423.621 157.451,419.954 154.5,416C 156.261,412.569 158.428,409.403 161,406.5C 162.361,401.726 160.861,398.226 156.5,396C 153.167,395.667 149.833,395.333 146.5,395C 146,394.5 145.5,394 145,393.5C 144.333,388.833 144.333,384.167 145,379.5C 145.5,379 146,378.5 146.5,378C 149.833,377.667 153.167,377.333 156.5,377C 160.861,374.774 162.361,371.274 161,366.5C 158.428,363.597 156.261,360.431 154.5,357C 157.117,353.38 160.117,350.047 163.5,347C 164.833,346.333 166.167,346.333 167.5,347C 170.929,351.807 175.429,353.641 181,352.5C 183.593,351.339 185.259,349.339 186,346.5C 186.333,343.5 186.667,340.5 187,337.5C 192.333,336.167 197.667,336.167 203,337.5C 202.989,342.1 203.989,346.433 206,350.5C 208.317,353.097 211.15,353.93 214.5,353C 218.028,351.101 221.194,348.935 224,346.5C 228.204,348.691 231.871,351.691 235,355.5C 235.52,357.289 235.187,358.956 234,360.5C 227.843,365.104 227.01,370.437 231.5,376.5 Z"/></g>
<g><path style="opacity:1" fill="#18452f" d="M 208.5,388.5 C 213.619,387.897 218.285,388.564 222.5,390.5C 221.667,396.005 219.667,401.005 216.5,405.5C 216.167,405.5 215.833,405.5 215.5,405.5C 212.371,401.869 209.037,398.369 205.5,395C 206.793,392.948 207.793,390.781 208.5,388.5 Z"/></g>
<g><path style="opacity:1" fill="#668267" d="M 208.5,388.5 C 213.305,387.513 218.305,387.179 223.5,387.5C 223.737,388.791 223.404,389.791 222.5,390.5C 218.285,388.564 213.619,387.897 208.5,388.5 Z"/></g>
<g><path style="opacity:1" fill="#67846a" d="M 181.5,388.5 C 176.381,387.897 171.715,388.564 167.5,390.5C 166.596,389.791 166.263,388.791 166.5,387.5C 171.695,387.179 176.695,387.513 181.5,388.5 Z"/></g>
<g><path style="opacity:1" fill="#57765a" d="M 222.5,382.5 C 223.404,383.209 223.737,384.209 223.5,385.5C 218.305,385.821 213.305,385.487 208.5,384.5C 213.619,385.103 218.285,384.436 222.5,382.5 Z"/></g>
<g><path style="opacity:1" fill="#58775a" d="M 167.5,382.5 C 171.715,384.436 176.381,385.103 181.5,384.5C 176.695,385.487 171.695,385.821 166.5,385.5C 166.263,384.209 166.596,383.209 167.5,382.5 Z"/></g>
<g><path style="opacity:1" fill="#1e4a32" d="M 198.5,380.5 C 199.833,380.5 201.167,380.5 202.5,380.5C 202.657,381.873 202.49,383.207 202,384.5C 199.158,387.542 196.324,390.542 193.5,393.5C 189.822,391.511 187.822,388.511 187.5,384.5C 189.903,384.393 191.736,385.393 193,387.5C 195.454,385.559 197.287,383.225 198.5,380.5 Z"/></g>
<g><path style="opacity:1" fill="#18452f" d="M 222.5,382.5 C 218.285,384.436 213.619,385.103 208.5,384.5C 207.008,378.005 203.008,374.338 196.5,373.5C 196.5,368.5 196.5,363.5 196.5,358.5C 211.168,360.143 219.835,368.143 222.5,382.5 Z"/></g>
<g><path style="opacity:1" fill="#18462f" d="M 181.5,384.5 C 176.381,385.103 171.715,384.436 167.5,382.5C 170.05,367.952 178.717,359.952 193.5,358.5C 193.5,363.5 193.5,368.5 193.5,373.5C 186.992,374.338 182.992,378.005 181.5,384.5 Z"/></g>
<g><path style="opacity:1" fill="#7e9680" d="M 584.5,434.5 C 582.537,441.424 581.87,448.757 582.5,456.5C 581.508,449.018 581.175,441.352 581.5,433.5C 582.791,433.263 583.791,433.596 584.5,434.5 Z"/></g>
<g><path style="opacity:1" fill="#d3e2cc" d="M 565.5,436.5 C 567.451,436.227 568.951,436.893 570,438.5C 572.558,445.282 575.391,451.949 578.5,458.5C 577.675,459.386 576.675,459.719 575.5,459.5C 575.202,456.735 574.202,454.235 572.5,452C 568.833,451.333 565.167,451.333 561.5,452C 560.563,454.707 559.23,457.207 557.5,459.5C 557.167,458.833 556.833,458.167 556.5,457.5C 559.311,450.394 562.311,443.394 565.5,436.5 Z"/></g>
<g><path style="opacity:1" fill="#eef8e5" d="M 524.5,436.5 C 525.823,439.938 526.49,443.771 526.5,448C 526.167,451.833 525.833,455.667 525.5,459.5C 524.503,451.862 524.169,444.196 524.5,436.5 Z"/></g>
<g><path style="opacity:1" fill="#708b72" d="M 592.5,434.5 C 590.537,441.424 589.87,448.757 590.5,456.5C 589.508,449.018 589.175,441.352 589.5,433.5C 590.791,433.263 591.791,433.596 592.5,434.5 Z"/></g>
<g><path style="opacity:1" fill="#285038" d="M 565.5,440.5 C 567.017,440.511 568.184,441.177 569,442.5C 569.557,444.615 570.391,446.615 571.5,448.5C 568.914,449.48 566.247,449.813 563.5,449.5C 563.873,446.426 564.539,443.426 565.5,440.5 Z"/></g>
<g><path style="opacity:1" fill="#d9e7d1" d="M 488.5,441.5 C 500.278,441.095 503.945,446.262 499.5,457C 488.226,462.379 482.726,458.879 483,446.5C 484.73,444.598 486.563,442.931 488.5,441.5 Z"/></g>
<g><path style="opacity:1" fill="#deedd7" d="M 467.5,441.5 C 468.735,441.721 469.735,442.388 470.5,443.5C 473.906,440.941 477.24,440.941 480.5,443.5C 478.328,443.676 475.995,443.843 473.5,444C 472.421,444.956 471.255,445.789 470,446.5C 469.828,450.871 469.328,455.204 468.5,459.5C 467.504,453.537 467.171,447.537 467.5,441.5 Z"/></g>
<g><path style="opacity:1" fill="#1c4831" d="M 488.5,443.5 C 496.212,442.715 499.712,446.048 499,453.5C 494.965,458.364 490.632,458.698 486,454.5C 484.812,450.259 485.645,446.592 488.5,443.5 Z"/></g>
<g><path style="opacity:1" fill="#617d62" d="M 462.5,443.5 C 460.735,444.461 458.735,444.795 456.5,444.5C 456.5,448.167 456.5,451.833 456.5,455.5C 455.517,451.702 455.183,447.702 455.5,443.5C 457.833,443.5 460.167,443.5 462.5,443.5 Z"/></g>
<g><path style="opacity:1" fill="#e0ecdb" d="M 462.5,443.5 C 460.167,443.5 457.833,443.5 455.5,443.5C 455.183,447.702 455.517,451.702 456.5,455.5C 458.45,457.026 460.783,458.026 463.5,458.5C 460.628,459.783 457.795,459.783 455,458.5C 453.612,453.628 453.112,448.628 453.5,443.5C 452.448,443.649 451.448,443.483 450.5,443C 452,441.5 453.5,440 455,438.5C 455.483,439.448 455.649,440.448 455.5,441.5C 458.247,441.187 460.914,441.52 463.5,442.5C 463.376,443.107 463.043,443.44 462.5,443.5 Z"/></g>
<g><path style="opacity:1" fill="#dfedd8" d="M 393.5,436.5 C 397.722,436.078 401.722,436.745 405.5,438.5C 401.62,438.588 397.62,438.754 393.5,439C 387.221,444.334 386.887,450.001 392.5,456C 396.781,458.109 400.948,457.942 405,455.5C 405.658,457.108 405.158,458.275 403.5,459C 390.055,461.555 384.555,456.055 387,442.5C 389.063,440.266 391.229,438.266 393.5,436.5 Z"/></g>
<g><path style="opacity:1" fill="#e8f1e2" d="M 431.5,441.5 C 432.735,441.721 433.735,442.388 434.5,443.5C 437.289,441.702 440.289,441.202 443.5,442C 445.751,442.748 447.084,444.248 447.5,446.5C 448.089,450.971 447.423,454.971 445.5,458.5C 445.666,454.154 445.499,449.821 445,445.5C 441.181,442.721 437.681,443.054 434.5,446.5C 433.834,450.353 433.167,454.353 432.5,458.5C 431.505,452.872 431.171,447.206 431.5,441.5 Z"/></g>
<g><path style="opacity:1" fill="#789376" d="M 447.5,446.5 C 448.485,450.634 448.818,454.968 448.5,459.5C 447.209,459.737 446.209,459.404 445.5,458.5C 447.423,454.971 448.089,450.971 447.5,446.5 Z"/></g>
<g><path style="opacity:1" fill="#d7e7cf" d="M 592.5,434.5 C 592.334,441.841 592.5,449.174 593,456.5C 596.426,458.359 596.26,459.193 592.5,459C 591.619,458.292 590.953,457.458 590.5,456.5C 589.87,448.757 590.537,441.424 592.5,434.5 Z"/></g>
<g><path style="opacity:1" fill="#94ab97" d="M 507.5,437.5 C 506.51,443.645 506.177,449.978 506.5,456.5C 505.181,449.656 505.181,442.656 506.5,435.5C 507.298,435.957 507.631,436.624 507.5,437.5 Z"/></g>
<g><path style="opacity:1" fill="#d3e1cb" d="M 507.5,437.5 C 508.328,443.653 508.828,449.987 509,456.5C 511.014,458.672 510.514,459.505 507.5,459C 506.748,458.329 506.414,457.496 506.5,456.5C 506.177,449.978 506.51,443.645 507.5,437.5 Z"/></g>
<g><path style="opacity:1" fill="#5c7c5f" d="M 431.5,441.5 C 431.171,447.206 431.505,452.872 432.5,458.5C 433.167,454.353 433.834,450.353 434.5,446.5C 434.5,450.833 434.5,455.167 434.5,459.5C 433.167,459.5 431.833,459.5 430.5,459.5C 430.177,453.31 430.51,447.31 431.5,441.5 Z"/></g>
<g><path style="opacity:1" fill="#d6e3d0" d="M 584.5,434.5 C 584.334,441.841 584.5,449.174 585,456.5C 588.168,458.717 587.668,459.55 583.5,459C 582.748,458.329 582.414,457.496 582.5,456.5C 581.87,448.757 582.537,441.424 584.5,434.5 Z"/></g>
<g><path style="opacity:1" fill="#d6e4d1" d="M 533.5,437.5 C 535.176,438.183 535.843,439.517 535.5,441.5C 544.833,442.167 544.833,442.833 535.5,443.5C 535.334,447.846 535.501,452.179 536,456.5C 538.405,457.274 540.905,457.774 543.5,458C 539.6,460.3 536.1,459.8 533,456.5C 532.501,452.179 532.334,447.846 532.5,443.5C 531.448,443.649 530.448,443.483 529.5,443C 531.819,441.853 533.152,440.019 533.5,437.5 Z"/></g>
<g><path style="opacity:1" fill="#d7e6d0" d="M 414.5,441.5 C 423.564,440.733 427.73,444.733 427,453.5C 424.081,459.025 419.581,460.858 413.5,459C 408.845,456.103 407.345,451.937 409,446.5C 410.352,444.251 412.185,442.584 414.5,441.5 Z"/></g>
<g><path style="opacity:1" fill="#1c4831" d="M 414.5,443.5 C 422.885,442.716 426.051,446.383 424,454.5C 420.341,458.115 416.341,458.448 412,455.5C 409.511,450.757 410.345,446.757 414.5,443.5 Z"/></g>
</svg>
